<?xml version="1.0" encoding="utf-8"?>
<!-- Generator: Adobe Illustrator 19.0.0, SVG Export Plug-In . SVG Version: 6.00 Build 0)  -->
<svg version="1.1" id="Layer_1" xmlns="http://www.w3.org/2000/svg" xmlns:xlink="http://www.w3.org/1999/xlink" x="0px" y="0px"
	 viewBox="-145 57 500 313.7" style="enable-background:new -145 57 500 313.7;" xml:space="preserve">
<style type="text/css">
	.st0{fill:#7F797E;}
	.st1{font-family:'OpenSans-Medium';}
	.st2{font-size:101.6515px;}
	.st3{fill:#0A873B;}
</style>
<g>
	<path class="st0" d="M71.4,340.1c0,3.6,2,5.6,5.6,5.6s5.6-2,5.6-5.6s-2-5.6-5.6-5.6S71.4,336.5,71.4,340.1z"/>
	<path class="st0" d="M127.3,340.1c0,3.6,2,5.6,5.6,5.6c3.6,0,5.6-2,5.6-5.6s-2-5.6-5.6-5.6C129.2,334.6,127.3,336.5,127.3,340.1z"
		/>
</g>
<text transform="matrix(1 0 0 1 -121.807 306.8144)" class="st0 st1 st2">Kumbaya</text>
<g>
	<path class="st3" d="M143.9,84c22.6,21.8,44.7,40.2,44.7,37.7c0-4.5-17.6-23.7-31.3-34.1C130.8,67.3,124.9,65.9,143.9,84z"/>
	<path class="st3" d="M90.9,74c0,0.3,13.1,9.8,29.3,20.9s29.3,19,29.3,17.6c0-4.2-20.9-22.1-33.5-28.5C103.1,77.6,90.9,72.6,90.9,74
		z"/>
	<path class="st3" d="M73.6,88.2c17.6,12,42.1,24.8,44.1,22.9c3.3-3.3-34.6-26.2-51.9-31.3C61.6,78.7,64.6,81.8,73.6,88.2z"/>
	<path class="st3" d="M183.2,100c34.9,36.8,58.1,55.8,38.8,31.5C211.7,118.4,174.6,84,170.7,84C169.3,84,174.9,91.3,183.2,100z"/>
	<path class="st3" d="M32.2,87.4C47,96.3,76.9,110,78.6,108.3c2.2-2.2-15.4-13.7-32.1-20.4C26.7,79.6,19.4,79.3,32.2,87.4z"/>
	<path class="st3" d="M217.5,97.6c0,2.2,33.5,55.3,39.6,63.1l5.6,7l-2-7c-4.2-13.4-13.4-29.6-27.4-46.9
		C220,97.4,217.5,94.8,217.5,97.6z"/>
	<path class="st3" d="M-11.9,94.1c3.1,3.1,48.8,17.9,55.3,17.6h7l-7-3.9C32.2,101.3-16.6,89.1-11.9,94.1z"/>
	<path class="st3" d="M-26.4,109.7c12.3,5,34.6,10.6,43.3,10.3h8.4l-7.3-3.9c-6.7-3.6-37.7-10-47.2-9.5
		C-31.4,106.6-30.3,108-26.4,109.7z"/>
	<path class="st3" d="M260.8,138.5c13.1,29.3,20.7,43.5,23.7,45.2c4.7,3.1-2.8-19-12.6-36C256.1,119.2,249.9,114.2,260.8,138.5z"/>
	<path class="st3" d="M-51.5,122.8c-9.2,1.1-11.2,2.2-7.5,3.6c7.3,3.1,54.7,2.8,49.4-0.3C-16,122.6-37.3,120.9-51.5,122.8z"/>
	<path class="st3" d="M22.5,140.4c-9.2,5-24,19.8-28.5,28.7c-3.1,6.1,0.8,3.3,15.6-11.2C32.5,135.7,33.4,134.3,22.5,140.4z"/>
	<path class="st3" d="M100.3,142.7c-12.8,6.4-35.7,24.8-33.5,27.1c1.4,1.4,49.1-29,49.1-31.5C116,136,111.5,137.1,100.3,142.7z"/>
	<path class="st3" d="M-70.8,145.4c-13.1,4.7-20.4,8.4-16.7,8.4c4.2,0,60.1-9.7,61.2-10.6C-22.6,139.4-57.9,140.7-70.8,145.4z"/>
	<path class="st3" d="M27.5,155.5c-8.4,8.4-14.8,16.2-14,17c1.7,1.7,24.3-16.2,33.8-26.8c4.7-5.3,5-5.9,0.6-5.9
		C45.1,139.9,36.2,146.8,27.5,155.5z"/>
	<path class="st3" d="M64.9,145.4c-8.9,7-25.7,27.9-22.3,27.9c4.7,0,38.5-33.2,34.1-33.5C74.1,139.9,68.8,142.4,64.9,145.4z"/>
	<path class="st3" d="M-13,150.2c-9.8,8.4-12.8,11.4-22.6,24.6l-6.1,8.4l8.7-6.1c8.4-6.1,31.8-30.1,31.8-32.9
		C-1.3,141.3-3.5,142.7-13,150.2z"/>
	<path class="st3" d="M131.9,146.8c-11.4,4.5-41.9,23.7-39.9,25.7c1.7,1.7,38-17,46.3-24C146.4,141.8,146.1,141.8,131.9,146.8z"/>
	<path class="st3" d="M-38.4,150.8c-8.7,5.6-36.6,31-34.1,31c1.1,0,8.9-4.7,17.6-10.9C-30.8,154.4-13.6,131.3-38.4,150.8z"/>
	<path class="st3" d="M153.7,158.8c-16.7,7.3-27.9,13.7-31.8,18.4c-2.2,2.5-3.1,4.5-2.5,4.5c0.8,0,14.5-6.1,30.4-13.7
		c18.7-8.9,26.5-14,22.1-14C167.9,154.1,159.8,156.3,153.7,158.8z"/>
	<path class="st3" d="M178.8,168.9c-13.7,4.5-36.8,16.7-26.5,14.2c3.9-0.8,20.9-5.3,37.7-9.8c30.1-7.8,30.4-7.8,15.4-7.8
		C196.9,165.3,184.9,166.9,178.8,168.9z"/>
	<path class="st3" d="M207,182c-16.7,5.9-34.9,15.9-22.6,12.8c3.1-0.8,16.2-4.5,29.3-7.8c29.9-7.5,35.7-10.6,20.9-10.6
		C228.5,176.4,215.9,178.9,207,182z"/>
	<path class="st3" d="M243,190.4c-7.8,1.1-18.4,4.2-23.7,6.7l-9.8,4.5l11.2-1.4c31-3.9,51.4-8.1,50-10.3
		C268.9,187,262.5,187,243,190.4z"/>
	<path class="st3" d="M298.3,205.8c0,0-98.6-68.5-178.1-76.8c0,0-72.9-7-119.7,5c0,0,15.5-16,104.5-14.9
		C105,119.1,215.7,117.3,298.3,205.8z"/>
</g>
</svg>
